<?xml version="1.0" encoding="UTF-8"?>
<!-- Generator: Adobe Illustrator 14.0.0, SVG Export Plug-In . SVG Version: 6.00 Build 43363)  -->
<svg xmlns="http://www.w3.org/2000/svg" xmlns:xlink="http://www.w3.org/1999/xlink" version="1.1" id="Layer_1" x="0px" y="0px" width="464.084px" height="195px" viewBox="0 0 464.084 195" xml:space="preserve">
<polygon points="58.5,39 58.5,0 39,0 0,0 0,39 0,78 0,117 0,195 39,195 39,117 58.5,117 58.5,78 39,78 39,39 "></polygon>
<polygon fill="#4F46E5" points="78,195 78,117 58.5,117 58.5,78 78,78 78,39 58.5,39 58.5,0 78,0 117,0 117,39 117,78 117,117   117,195 "></polygon>
<g>
	<polygon points="149.083,98.281 163.186,98.281 163.186,64.226 177.117,64.226 177.117,53.085 163.186,53.085 163.186,32.771    181.158,32.771 181.158,21.544 149.083,21.544  "></polygon>
	<path d="M217.55,24.016c-3.189-2.059-7.481-3.102-12.757-3.102c-5.264,0-9.563,1.024-12.774,3.045   c-3.268,2.054-5.652,5.044-7.092,8.889c-1.364,3.647-2.055,8.037-2.055,13.047v27.587c0,5.001,0.672,9.438,1.998,13.194   c1.405,3.967,3.784,7.069,7.074,9.217c3.247,2.121,7.568,3.196,12.85,3.196c5.293,0,9.598-1.097,12.791-3.259   c3.214-2.176,5.566-5.264,6.994-9.182c1.358-3.737,2.051-8.136,2.051-13.077V45.895c0-5.006-0.693-9.384-2.059-13.011   C223.135,29.084,220.774,26.1,217.55,24.016z M209.666,85.916c-1.01,0.815-2.65,1.227-4.873,1.227   c-2.229,0-3.889-0.417-4.934-1.241c-1.057-0.832-1.754-1.999-2.128-3.579c-0.444-1.842-0.669-4.061-0.669-6.596V43.829   c0-2.53,0.225-4.714,0.664-6.495c0.37-1.502,1.053-2.608,2.091-3.38c1.056-0.785,2.728-1.183,4.976-1.183   c2.241,0,3.896,0.393,4.917,1.17c1.016,0.775,1.692,1.887,2.063,3.393c0.438,1.784,0.66,3.97,0.66,6.495v31.897   c0,2.53-0.224,4.75-0.662,6.597C211.391,83.908,210.703,85.082,209.666,85.916z"></path>
	<path d="M268.408,57.625c1.496-1.808,2.595-4.029,3.266-6.607c0.639-2.459,0.965-5.213,0.965-8.18   c0-4.917-0.852-8.996-2.529-12.121c-1.744-3.246-4.453-5.637-8.054-7.098c-3.397-1.38-7.698-2.075-12.781-2.075h-16.622v76.737   h14.102V64.134h4.437l9.524,34.147h13.904l-10.563-37.292C265.777,60.162,267.234,59.036,268.408,57.625z M246.754,32.771h2.521   c3.917,0,6.591,0.729,7.733,2.113c1.251,1.516,1.883,4.193,1.883,7.953c0,2.8-0.358,4.961-1.061,6.42   c-0.623,1.289-1.575,2.176-2.908,2.709c-1.556,0.622-3.668,0.939-6.276,0.939h-1.892V32.771z"></path>
	<polygon points="316.607,21.544 305.266,73.303 294,21.544 280.492,21.544 279.072,98.281 291.297,98.281 291.889,59.695    300.813,98.281 309.7,98.281 318.717,59.588 319.309,98.281 331.443,98.281 330.023,21.544  "></polygon>
	<path d="M350.473,21.544l-16.291,76.737h13.596l3.504-18.332h11.546l3.326,18.332h13.705l-16.392-76.737H350.473z M360.751,68.723   h-7.384l3.665-19.967L360.751,68.723z"></path>
	<polygon points="396.912,87.053 396.912,21.544 382.807,21.544 382.807,98.281 415.516,98.281 415.516,87.053  "></polygon>
</g>
<g>
	<g>
		<g>
			<polygon fill="#4F46E5" points="149.083,194.191 163.186,194.191 163.186,160.133 177.117,160.133 177.117,148.995      163.186,148.995 163.186,128.683 181.158,128.683 181.158,117.452 149.083,117.452    "></polygon>
		</g>
		<g>
			<g>
				<path fill="#4F46E5" d="M217.55,119.924c-3.189-2.055-7.481-3.099-12.757-3.099c-5.266,0-9.564,1.023-12.774,3.043      c-3.268,2.054-5.655,5.044-7.092,8.889c-1.364,3.647-2.055,8.039-2.055,13.048v27.586c0,5,0.672,9.438,1.998,13.193      c1.405,3.972,3.784,7.074,7.074,9.217c3.247,2.122,7.57,3.199,12.85,3.199c5.293,0,9.598-1.098,12.791-3.261      c3.214-2.175,5.567-5.263,6.994-9.18c1.358-3.737,2.051-8.137,2.051-13.078v-27.677c0-5.006-0.693-9.382-2.059-13.007      C223.137,124.994,220.775,122.01,217.55,119.924z M209.666,181.826c-1.01,0.813-2.65,1.229-4.873,1.229      c-2.229,0-3.889-0.418-4.934-1.243c-1.057-0.832-1.754-2.001-2.128-3.579c-0.444-1.843-0.669-4.061-0.669-6.596v-31.898      c0-2.53,0.225-4.711,0.664-6.496c0.37-1.5,1.053-2.604,2.091-3.378c1.056-0.784,2.728-1.182,4.976-1.182      c2.241,0,3.896,0.395,4.917,1.167c1.016,0.775,1.692,1.888,2.063,3.393c0.438,1.787,0.66,3.971,0.66,6.496v31.898      c0,2.531-0.224,4.75-0.662,6.596C211.391,179.817,210.703,180.992,209.666,181.826z"></path>
			</g>
		</g>
		<g>
			<path fill="#4F46E5" d="M261.138,168.134c0,2.989-0.202,5.751-0.603,8.218c-0.354,2.178-1.095,3.893-2.199,5.091     c-0.982,1.069-2.643,1.612-4.928,1.612c-2.268,0-3.871-0.532-4.897-1.628c-1.128-1.196-1.876-2.904-2.229-5.075     c-0.402-2.458-0.604-5.223-0.604-8.218v-50.682h-13.654v50.233c0,5.24,0.535,9.901,1.594,13.854     c1.131,4.227,3.31,7.566,6.48,9.925c3.146,2.347,7.627,3.536,13.311,3.536c5.688,0,10.152-1.191,13.275-3.544     c3.13-2.354,5.291-5.692,6.425-9.917c1.06-3.952,1.595-8.613,1.595-13.854v-50.233h-13.565V168.134z"></path>
		</g>
		<g>
			<polygon fill="#4F46E5" points="309.034,158.129 291.646,117.452 281.446,117.452 281.446,194.191 294.023,194.191      294.023,152.295 311.674,194.191 321.432,194.191 321.432,117.452 309.034,117.452    "></polygon>
		</g>
		<g>
			<g>
				<path fill="#4F46E5" d="M360.406,120.15c-3.418-1.787-8.035-2.698-13.723-2.698h-17.789v76.739h18.6      c5.435,0,9.875-1.02,13.197-3.024c3.398-2.054,5.886-5.093,7.383-9.03c1.43-3.74,2.15-8.363,2.15-13.733v-26.778      c0-5.148-0.729-9.541-2.167-13.059C366.535,124.847,363.963,122.014,360.406,120.15z M342.998,128.952h3.508      c3.814,0,5.664,0.7,6.544,1.287c1.176,0.782,1.93,2.05,2.305,3.876c0.449,2.196,0.681,5.147,0.681,8.769v23.634      c0,3.779-0.164,7.057-0.482,9.74c-0.271,2.263-1.016,3.97-2.209,5.074c-1.158,1.065-3.429,1.63-6.568,1.63h-3.777V128.952z"></path>
			</g>
		</g>
		<g>
			<g>
				<path fill="#4F46E5" d="M412.006,153.535c1.498-1.807,2.598-4.028,3.268-6.608c0.638-2.46,0.962-5.213,0.962-8.179      c0-4.917-0.851-8.996-2.528-12.121c-1.742-3.248-4.453-5.636-8.051-7.098c-3.396-1.379-7.699-2.077-12.783-2.077H376.25v76.739      h14.105v-34.147h4.432l9.527,34.147h13.904l-10.563-37.293C409.378,156.071,410.832,154.944,412.006,153.535z M390.355,128.683      h2.518c3.918,0,6.592,0.731,7.732,2.114c1.25,1.515,1.887,4.189,1.887,7.951c0,2.803-0.357,4.964-1.063,6.422      c-0.625,1.287-1.577,2.175-2.908,2.71c-1.557,0.621-3.67,0.936-6.277,0.936h-1.889V128.683z"></path>
			</g>
		</g>
		<g>
			<polygon fill="#4F46E5" points="450.37,117.452 440.844,147.983 431.159,117.452 417.54,117.452 434.031,166.837      434.031,194.191 447.688,194.191 447.688,166.837 464.084,117.452    "></polygon>
		</g>
	</g>
</g>
</svg>
